# xmcd
# Copyright (C) 1995-1998 Ti Kan
#
# Track frame offsets:
#       150
#       15104
#       31781
#       49020
#       66115
#       87562
#       105480
#       119777
#       144099
#       165658
#
# Disc length: 2423 seconds
#
# Revision: 0
# Processed by: cddbd v1.5.1PL0 Copyright (c) Steve Scherf et al.
# Submitted via: CD-Transfer v1.0
#
DISCID=7609750a
DTITLE=Cashem - Tuube Füetere
DYEAR=2005
DGENRE=
TTITLE0=Heili Wält
TTITLE1=Füür Im Dach
TTITLE2=Tuube Füetere
TTITLE3=D' Bärge
TTITLE4=Mobbing
TTITLE5=Casino
TTITLE6=Mannefründschaft
TTITLE7=Warum Grad Du
TTITLE8=Casting
TTITLE9=Promi
EXTD=
EXTT0=
EXTT1=
EXTT2=
EXTT3=
EXTT4=
EXTT5=
EXTT6=
EXTT7=
EXTT8=
EXTT9=
PLAYORDER=
